<?xml version="1.0" standalone="no"?>
<!DOCTYPE svg PUBLIC "-//W3C//DTD SVG 20010904//EN"
 "http://www.w3.org/TR/2001/REC-SVG-20010904/DTD/svg10.dtd">
<svg version="1.0" xmlns="http://www.w3.org/2000/svg"
 width="1000.000000pt" height="1000.000000pt" viewBox="0 0 1000.000000 1000.000000"
 preserveAspectRatio="xMidYMid meet">
<metadata>
Created by potrace 1.11, written by Peter Selinger 2001-2013
</metadata>
<g transform="translate(0.000000,1000.000000) scale(0.100000,-0.100000)"
fill="#000000" stroke="none">
<path d="M0 5000 l0 -5000 5000 0 5000 0 0 5000 0 5000 -5000 0 -5000 0 0
-5000z m3555 3707 c214 -72 364 -225 410 -418 19 -83 19 -238 0 -314 -57 -224
-229 -378 -477 -429 -60 -12 -140 -16 -358 -16 l-280 0 0 -430 0 -430 -85 0
-85 0 0 1036 0 1035 398 -3 397 -4 80 -27z m1872 -1002 c183 -566 333 -1031
333 -1032 0 -2 -37 -3 -82 -3 l-83 0 -90 288 -90 287 -399 0 -400 0 -91 -285
-90 -285 -84 -3 c-82 -3 -83 -3 -76 20 10 33 567 1747 621 1911 l46 138 76 -3
76 -3 333 -1030z m1317 164 l471 -867 6 107 c4 58 7 449 8 869 l1 762 80 0 80
0 0 -1035 0 -1035 -82 0 -83 0 -475 875 -475 876 -3 -876 -2 -875 -85 0 -85 0
0 1035 0 1036 86 -3 86 -3 472 -866z m170 -1824 c245 -52 431 -246 496 -517
32 -133 34 -128 -58 -128 l-79 0 -21 86 c-57 229 -191 379 -381 424 -33 8 -89
11 -148 8 -82 -5 -103 -10 -167 -42 -108 -53 -175 -125 -236 -250 -27 -56 -59
-141 -72 -191 -22 -86 -23 -106 -23 -440 1 -349 1 -350 28 -449 93 -341 305
-511 585 -468 212 34 353 178 414 425 l21 87 79 0 c92 0 91 3 57 -126 -69
-266 -248 -455 -486 -510 -90 -21 -251 -20 -333 1 -260 67 -439 289 -511 635
-26 123 -37 513 -20 679 44 417 251 712 545 776 82 18 226 18 310 0z m-4260
-52 c17 -106 207 -1547 212 -1615 4 -49 10 -74 15 -66 5 7 9 27 9 44 0 25 284
1563 305 1652 5 22 10 23 78 20 l71 -3 28 -145 c14 -80 83 -444 151 -810 69
-366 129 -692 133 -725 l8 -60 9 70 c13 103 206 1583 213 1633 l6 42 74 0 74
0 -1 -27 c0 -16 -64 -480 -142 -1033 l-142 -1005 -81 -3 c-78 -3 -82 -2 -87
20 -3 13 -74 399 -157 858 -84 459 -154 837 -156 839 -2 2 -5 2 -7 0 -2 -2
-70 -368 -151 -814 -81 -445 -152 -832 -158 -858 l-10 -48 -81 3 -81 3 -143
1010 c-78 556 -142 1020 -143 1033 0 21 4 22 74 22 l74 0 6 -37z m2773 -998
c183 -566 333 -1031 333 -1032 0 -2 -37 -3 -82 -3 l-83 0 -90 288 -90 287
-399 0 -400 0 -91 -285 -90 -285 -84 -3 c-82 -3 -83 -3 -76 20 10 33 567 1747
621 1911 l46 138 76 -3 76 -3 333 -1030z m-2547 -2126 c0 -424 1 -450 18 -445
63 19 374 117 386 122 14 5 16 -5 16 -69 l0 -75 -62 -21 c-35 -11 -129 -41
-210 -66 l-148 -46 0 -435 0 -434 530 0 530 0 0 -75 0 -75 -610 0 -610 0 0
486 c0 422 -2 485 -15 481 -27 -11 -241 -77 -248 -77 -11 0 -8 138 2 145 5 3
65 22 133 44 l123 38 3 476 2 477 80 0 80 0 0 -451z m2547 -584 c183 -566 333
-1031 333 -1032 0 -2 -37 -3 -82 -3 l-83 0 -90 288 -90 287 -399 0 -400 0 -91
-285 -90 -285 -84 -3 c-82 -3 -83 -3 -76 20 10 33 567 1747 621 1911 l46 138
76 -3 76 -3 333 -1030z m727 998 c17 -106 207 -1547 212 -1615 4 -49 10 -74
15 -66 5 7 9 27 9 44 0 25 284 1563 305 1652 5 22 10 23 78 20 l71 -3 28 -145
c14 -80 83 -444 151 -810 69 -366 129 -692 133 -725 l8 -60 9 70 c13 103 206
1583 213 1633 l6 42 74 0 74 0 -1 -27 c0 -16 -64 -480 -142 -1033 l-142 -1005
-81 -3 c-78 -3 -82 -2 -87 20 -3 13 -74 399 -157 858 -84 459 -154 837 -156
839 -2 2 -5 2 -7 0 -2 -2 -70 -368 -151 -814 -81 -445 -152 -832 -158 -858
l-10 -48 -81 3 -81 3 -143 1010 c-78 556 -142 1020 -143 1033 0 21 4 22 74 22
l74 0 6 -37z"/>
<path d="M2850 8135 l0 -465 283 0 c212 0 295 4 336 15 217 57 351 227 351
445 0 223 -137 398 -357 455 -44 12 -121 15 -335 15 l-278 0 0 -465z"/>
<path d="M5010 8488 c0 -3 -74 -239 -165 -525 -91 -285 -168 -528 -171 -540
l-6 -23 346 0 c190 0 346 3 346 8 0 4 -75 246 -166 537 -143 454 -184 575
-184 543z"/>
<path d="M5010 5778 c0 -3 -74 -239 -165 -525 -91 -285 -168 -528 -171 -540
l-6 -23 346 0 c190 0 346 3 346 8 0 4 -75 246 -166 537 -143 454 -184 575
-184 543z"/>
<path d="M5010 3068 c0 -3 -74 -239 -165 -525 -91 -285 -168 -528 -171 -540
l-6 -23 346 0 c190 0 346 3 346 8 0 4 -75 246 -166 537 -143 454 -184 575
-184 543z"/>
</g>
</svg>
